<?xml version="1.0" standalone="no"?>
<!DOCTYPE svg PUBLIC "-//W3C//DTD SVG 20010904//EN"
 "http://www.w3.org/TR/2001/REC-SVG-20010904/DTD/svg10.dtd">
<svg version="1.0" xmlns="http://www.w3.org/2000/svg"
 width="260.000000pt" height="260.000000pt" viewBox="0 0 260.000000 260.000000"
 preserveAspectRatio="xMidYMid meet">
<metadata>
Created by potrace 1.14, written by Peter Selinger 2001-2017
</metadata>
<g transform="translate(0.000000,260.000000) scale(0.100000,-0.100000)"
fill="#000000" stroke="none">
<path d="M352 2583 c-17 -17 -15 -22 7 -16 11 3 21 -2 25 -12 4 -11 2 -14 -7
-8 -21 14 -58 10 -52 -5 3 -10 0 -12 -10 -8 -8 3 -15 0 -15 -7 -1 -13 -77 -63
-92 -59 -5 1 -4 -8 3 -20 9 -19 9 -21 -2 -10 -18 16 -34 15 -20 -2 9 -11 7
-12 -12 -9 -17 3 -23 0 -24 -16 -1 -12 3 -21 8 -21 6 0 8 4 4 9 -3 5 -1 12 4
15 5 4 8 -2 6 -11 -2 -10 -4 -22 -4 -26 -1 -5 -6 -5 -13 -1 -8 5 -9 2 -5 -9 4
-10 2 -17 -5 -17 -7 0 -6 -5 2 -15 10 -12 10 -15 -1 -16 -8 0 -5 -4 6 -9 14
-6 15 -9 5 -9 -20 -1 -19 -49 1 -62 11 -7 10 -9 -6 -9 l-20 -1 20 -16 c13 -10
15 -14 4 -10 -13 4 -16 -4 -14 -59 1 -40 -3 -64 -9 -64 -7 0 -8 -3 -1 -8 6 -4
10 -16 10 -27 0 -11 -4 -23 -10 -27 -6 -5 -5 -8 3 -8 8 0 10 -5 5 -12 -11 -18
-12 -78 0 -78 5 0 4 -6 -2 -14 -9 -11 -10 -20 -1 -36 6 -11 9 -38 7 -60 -2
-21 1 -44 7 -50 7 -7 7 -10 -1 -10 -6 0 -9 -9 -6 -20 3 -11 10 -17 15 -14 5 3
4 -4 -4 -15 -11 -18 -11 -23 2 -31 8 -5 19 -6 25 -3 5 4 6 2 2 -3 -5 -5 -16
-9 -25 -9 -16 0 -17 -7 -13 -80 1 -23 4 -26 11 -15 7 12 9 10 7 -7 0 -12 -5
-19 -9 -17 -4 3 -8 -2 -8 -10 0 -9 4 -16 8 -16 5 0 9 -7 9 -15 0 -9 -4 -11
-11 -6 -8 6 -11 0 -10 -22 1 -20 7 -33 20 -38 16 -6 16 -8 2 -8 -10 -1 -15 -8
-13 -18 2 -10 4 -22 4 -26 1 -5 7 -5 14 -1 8 5 8 2 -2 -9 -11 -14 -11 -17 0
-17 9 0 10 -3 4 -8 -12 -8 -15 -52 -4 -52 4 0 10 6 12 13 4 9 6 9 6 -1 1 -7
-6 -15 -14 -18 -12 -5 -13 -10 -4 -20 9 -11 9 -14 0 -14 -7 0 -9 -5 -5 -12 12
-19 12 -170 1 -193 -9 -18 -9 -19 8 -5 17 14 18 13 9 -5 -12 -23 -11 -56 1
-75 6 -9 4 -11 -4 -5 -15 9 -11 -36 4 -47 6 -5 5 -8 -2 -8 -8 0 -11 -11 -9
-30 2 -17 -1 -33 -6 -36 -5 -3 -4 -12 3 -20 6 -8 7 -14 2 -14 -11 0 -14 -21
-12 -92 0 -7 -2 -29 -4 -48 -2 -19 -1 -44 4 -56 4 -11 9 -41 10 -65 2 -24 7
-47 12 -50 5 -4 6 -13 1 -20 -12 -20 -14 -59 -3 -59 6 0 6 -8 -1 -20 -6 -11
-7 -20 -2 -20 12 0 12 -32 -1 -47 -5 -7 -5 -13 0 -13 5 0 9 -9 10 -20 1 -11
-2 -18 -8 -15 -5 4 -5 -3 0 -18 6 -14 7 -27 4 -31 -8 -7 -15 -62 -15 -115 0
-47 17 -67 41 -48 12 9 13 9 7 -1 -6 -9 1 -12 26 -10 39 2 61 -8 52 -24 -4 -7
-2 -8 5 -4 6 4 9 12 6 17 -4 5 -1 9 4 9 6 0 11 -4 11 -10 0 -6 26 -10 58 -10
33 0 64 -5 71 -13 10 -8 12 -8 7 0 -4 8 3 11 23 11 19 -1 28 -5 24 -12 -5 -8
-3 -8 8 0 17 13 239 16 239 3 0 -5 5 -9 11 -9 5 0 7 5 3 12 -5 7 -3 8 6 3 17
-11 60 -15 60 -6 0 4 9 7 20 8 11 1 18 -2 15 -7 -8 -12 21 -6 38 8 13 11 17
10 24 -3 7 -12 15 -14 34 -6 15 5 32 6 39 1 9 -5 20 -4 27 2 9 7 13 7 13 -1 0
-8 6 -9 18 -3 9 5 51 10 92 11 44 2 78 7 82 14 5 8 8 7 8 -3 0 -13 1 -13 10 0
8 13 11 12 25 -5 8 -11 13 -13 10 -5 -4 11 2 15 20 15 14 0 25 -3 25 -7 0 -5
5 -8 11 -8 5 0 7 5 3 12 -5 7 -3 8 7 2 21 -13 38 -14 45 -2 4 6 10 5 15 -3 7
-11 9 -11 9 1 0 13 1 13 10 0 7 -11 10 -11 10 -2 0 8 5 10 12 6 24 -15 49 -12
43 5 -4 12 -2 12 9 -2 10 -14 15 -15 19 -5 4 9 6 10 6 1 1 -7 8 -10 16 -7 8 4
12 10 9 15 -3 5 2 6 10 3 9 -3 14 -9 12 -13 -3 -4 4 -7 14 -7 10 0 16 5 12 11
-3 5 2 4 11 -4 13 -10 17 -10 17 -1 0 10 3 10 15 0 12 -10 15 -10 15 0 0 10 3
10 15 0 11 -9 15 -9 15 -1 0 7 5 9 13 4 20 -12 37 -12 37 0 0 8 4 7 9 -2 5 -7
14 -10 20 -7 6 4 9 11 6 16 -3 5 -1 12 5 15 6 4 10 3 9 -2 -3 -20 2 -29 21
-30 11 -1 20 3 20 9 0 6 6 5 16 -3 14 -11 19 -9 35 11 l18 25 -6 -25 c-5 -21
-4 -23 8 -14 8 6 26 10 41 9 15 -1 29 4 32 10 6 17 52 13 48 -5 -3 -11 0 -11
12 0 9 7 16 9 16 4 0 -4 5 -3 11 3 6 6 19 9 28 5 12 -4 14 -2 6 9 -5 8 -2 6 7
-4 10 -11 18 -14 18 -8 0 6 7 8 15 5 8 -4 12 -11 9 -18 -3 -6 1 -3 9 7 11 14
16 15 20 5 4 -9 6 -7 6 4 1 9 5 20 11 23 6 3 7 -1 4 -9 -4 -11 0 -16 12 -15
11 0 14 3 7 5 -7 3 -9 12 -6 21 5 12 1 14 -18 8 -21 -7 -22 -6 -11 8 10 12 10
17 1 23 -8 5 -9 3 -4 -6 5 -8 4 -11 -3 -6 -6 4 -9 13 -5 22 3 8 8 13 11 10 5
-6 42 33 42 44 0 4 13 13 29 20 16 6 32 18 35 26 3 8 12 14 21 14 8 0 15 4 15
9 0 5 10 13 22 17 13 4 28 14 35 23 10 13 11 14 10 1 -2 -8 -6 -22 -11 -30 -4
-8 2 -4 13 9 12 13 21 19 21 14 0 -5 16 -7 35 -5 23 3 35 10 36 21 1 9 3 29 5
44 2 18 -2 30 -12 34 -12 4 -12 8 3 20 17 14 17 14 1 9 -10 -3 -18 -1 -18 4 0
6 7 10 16 10 8 0 13 4 9 10 -3 5 -13 7 -23 4 -15 -5 -15 -4 1 6 12 8 15 16 9
23 -5 7 -8 22 -7 34 1 13 -2 23 -7 23 -5 0 -4 10 3 21 7 15 8 19 0 15 -7 -5
-9 -1 -5 8 3 9 10 16 15 16 5 0 9 5 9 11 0 5 -4 7 -10 4 -5 -3 -10 1 -10 10 0
8 7 18 15 21 12 5 10 10 -8 24 -20 17 -21 19 -4 25 17 7 17 8 0 28 -10 11 -13
17 -7 14 8 -4 13 4 16 23 2 16 2 27 -2 25 -3 -2 -6 5 -6 16 0 11 5 18 13 15 7
-3 10 1 6 9 -3 8 -10 12 -17 8 -8 -5 -8 -3 0 8 16 21 17 72 1 63 -9 -6 -9 -4
1 8 9 12 10 18 2 23 -6 4 -9 13 -6 21 3 7 0 17 -7 21 -12 8 -19 123 -7 123 3
0 5 14 5 30 0 17 -4 30 -8 30 -4 0 -3 9 3 20 9 16 8 20 -6 20 -10 0 -14 3 -10
7 4 5 12 8 17 8 8 0 11 8 8 18 -7 22 -5 37 4 37 8 0 8 3 2 8 -5 4 -11 20 -12
36 -1 16 -8 33 -14 37 -8 5 -7 8 2 12 11 3 11 7 2 17 -8 9 -9 19 -2 32 7 13 6
18 -2 18 -7 0 -9 3 -6 7 4 3 -1 16 -10 27 -14 15 -14 18 -2 8 9 -6 19 -9 22
-5 4 3 0 11 -9 18 -15 10 -15 13 0 28 11 11 13 18 5 23 -8 4 -7 9 2 15 10 6
11 9 2 9 -7 0 -13 5 -13 11 0 5 4 8 8 5 5 -3 9 1 9 9 0 8 -4 12 -8 9 -5 -2 -7
11 -5 31 1 20 -2 35 -8 35 -6 0 -4 5 4 10 8 5 10 10 3 10 -6 0 -9 9 -6 20 3
11 -1 28 -8 37 -8 10 -9 14 -2 10 6 -4 14 -3 18 3 3 5 2 10 -3 10 -12 0 -10
43 3 52 6 5 6 8 -2 8 -6 0 -9 9 -5 22 4 16 2 19 -9 14 -8 -4 -6 -1 3 7 13 10
15 16 6 25 -8 8 -8 12 -1 12 5 0 10 13 9 30 -1 16 -5 30 -10 30 -4 0 -6 9 -3
21 4 15 2 19 -9 15 -9 -4 -12 -2 -8 5 4 6 0 16 -7 21 -11 8 -10 9 3 4 15 -4
16 0 11 27 -3 18 -11 35 -17 39 -7 5 -3 8 8 8 19 0 19 0 0 22 -15 19 -16 20
-1 9 15 -12 17 -11 17 3 0 10 -5 27 -11 38 -6 11 -7 18 -1 14 11 -6 9 44 -2
62 -4 7 -2 12 3 12 6 0 11 4 11 10 0 5 -8 7 -17 4 -17 -5 -17 -5 0 6 19 12 13
34 -6 24 -7 -3 -4 1 6 9 9 8 17 17 17 21 0 3 -8 6 -17 6 -15 0 -15 2 -4 9 13
8 13 12 1 26 -12 14 -12 18 1 26 8 5 9 9 3 9 -7 0 -15 7 -18 16 -5 13 -3 14 6
6 10 -8 13 -3 15 19 1 17 -3 29 -10 29 -8 0 -9 3 -1 8 13 9 27 45 15 37 -5 -3
-12 -1 -16 5 -3 5 1 10 9 10 19 0 21 11 4 28 -8 8 -17 8 -30 1 -10 -5 -24 -7
-31 -3 -9 6 -8 3 1 -8 10 -13 10 -18 1 -24 -8 -5 -9 -3 -4 6 6 10 4 12 -9 7
-10 -4 -15 -3 -11 3 3 6 -1 10 -10 10 -9 0 -13 -4 -10 -10 3 -6 -4 -10 -17
-10 -18 0 -20 2 -8 10 13 8 12 10 -2 10 -10 0 -18 -6 -18 -12 0 -9 -4 -8 -10
2 -5 8 -10 11 -10 7 0 -4 -9 -3 -19 3 -14 7 -22 7 -27 -2 -4 -6 -3 -8 4 -4 6
3 13 3 15 -2 3 -4 -20 -8 -51 -8 -32 0 -51 1 -44 3 6 3 12 9 12 15 0 6 -12 3
-26 -7 -25 -16 -25 -16 -14 4 8 17 8 21 -2 19 -7 -2 -17 -12 -21 -23 -8 -19
-9 -19 -28 4 -16 20 -22 22 -32 11 -10 -10 -9 -11 2 -5 10 5 12 4 7 -4 -4 -6
-12 -9 -17 -6 -5 4 -9 0 -9 -7 0 -10 -2 -10 -9 1 -11 18 -64 25 -55 8 3 -7 -1
-4 -9 5 -17 22 -32 11 -14 -11 10 -14 10 -14 -4 -4 -9 7 -20 9 -24 5 -5 -4 -5
-2 -2 4 9 15 -20 27 -29 12 -4 -7 -3 -8 4 -4 8 5 10 2 6 -8 -5 -13 -9 -12 -26
7 -11 12 -16 15 -12 7 7 -13 5 -13 -9 -1 -11 9 -17 10 -17 2 0 -6 -5 -11 -11
-11 -5 0 -8 3 -6 8 7 10 -145 9 -162 -2 -10 -6 -12 -6 -7 2 4 7 1 12 -9 12
-12 0 -15 -5 -11 -17 6 -16 5 -16 -8 0 -9 12 -16 14 -21 8 -3 -6 -12 -11 -18
-11 -7 0 -6 4 3 10 12 8 10 10 -10 10 -15 0 -32 -6 -39 -12 -11 -10 -13 -10
-7 0 4 6 3 12 -3 12 -5 0 -12 -6 -14 -12 -4 -10 -6 -10 -6 0 -1 6 -10 12 -21
12 -11 0 -20 -6 -20 -12 0 -9 -3 -10 -8 -2 -11 16 -138 12 -134 -5 1 -7 -2 -9
-8 -6 -6 4 -9 14 -6 24 5 12 2 11 -9 -3 -8 -11 -15 -14 -15 -8 0 7 -5 12 -11
12 -5 0 -7 -4 -4 -10 4 -6 -1 -7 -11 -3 -12 4 -15 3 -10 -6 6 -9 3 -9 -13 1
-12 7 -21 16 -21 20 0 14 -29 -4 -33 -20 -4 -15 -5 -15 -6 1 -1 19 -16 23 -26
7 -4 -6 -12 -7 -18 -3 -18 11 -77 9 -77 -2 0 -7 -3 -7 -8 0 -9 12 -82 14 -82
2 0 -4 -5 -5 -10 -2 -6 4 -8 9 -6 13 2 4 -12 7 -32 6 -21 0 -41 5 -45 10 -5 6
-5 0 -2 -14 l7 -25 -16 22 c-17 22 -52 22 -39 -1 4 -6 -4 -4 -17 5 -17 11 -32
14 -47 8 -12 -4 -25 -4 -28 1 -3 4 -14 6 -25 3 -11 -3 -17 -9 -15 -14 3 -4 13
-5 22 -2 15 6 16 5 3 -9 -13 -13 -16 -13 -33 9 -11 13 -22 22 -25 19 -2 -3 1
-13 9 -23 13 -16 13 -16 -10 0 -18 12 -29 13 -43 6 -13 -7 -18 -6 -18 3 0 6
-6 4 -13 -7 -11 -14 -16 -15 -22 -5 -6 9 -4 11 6 5 12 -8 12 -6 0 8 -7 9 -17
14 -22 11 -14 -8 -11 -16 4 -8 6 4 9 3 5 -1 -5 -5 -20 -9 -35 -11 -16 -1 -22
0 -15 3 6 2 12 9 12 15 0 6 -7 7 -16 4 -9 -4 -23 -1 -30 5 -11 9 -14 7 -15 -7
-1 -11 -1 -23 0 -27 1 -5 -3 -6 -8 -3 -5 4 -8 14 -6 24 4 21 -26 24 -43 5z
m393 -23 c4 -6 -1 -7 -11 -3 -13 5 -15 3 -9 -7 5 -9 4 -11 -3 -6 -7 4 -12 11
-12 17 0 12 27 12 35 -1z m140 -8 c-3 -3 -11 0 -18 7 -9 10 -8 11 6 5 10 -3
15 -9 12 -12z m430 -2 c3 -6 -1 -7 -9 -4 -18 7 -21 14 -7 14 6 0 13 -4 16 -10z
m74 0 c-6 -5 -18 -6 -26 -3 -19 8 -16 11 13 11 17 0 22 -3 13 -8z m61 0 c0 -5
-2 -10 -4 -10 -3 0 -8 5 -11 10 -3 6 -1 10 4 10 6 0 11 -4 11 -10z m237 -6
c-3 -3 -12 -4 -19 -1 -8 3 -5 6 6 6 11 1 17 -2 13 -5z m-782 -52 c-3 -3 -11 0
-18 7 -9 10 -8 11 6 5 10 -3 15 -9 12 -12z m80 8 c3 -5 1 -10 -4 -10 -6 0 -11
5 -11 10 0 6 2 10 4 10 3 0 8 -4 11 -10z m775 -24 c0 -2 -7 -7 -16 -10 -8 -3
-12 -2 -9 4 6 10 25 14 25 6z m420 -30 c-7 -7 -13 -7 -20 0 -6 6 -3 10 10 10
13 0 16 -4 10 -10z m148 5 c2 -1 0 -6 -3 -11 -5 -8 -12 -7 -23 2 -12 10 -14
10 -8 0 4 -7 1 -19 -8 -27 -17 -17 -36 -20 -36 -5 0 6 5 9 12 8 7 -2 13 4 14
12 0 8 2 18 2 22 2 6 21 6 50 -1z m-105 -34 c-7 -11 -23 2 -23 19 0 12 2 12
14 2 8 -7 12 -16 9 -21z m12 -43 c-13 -13 -17 -14 -29 -1 -13 12 -10 14 15 15
26 1 27 -1 14 -14z m-1978 -16 c-3 -8 -6 -5 -6 6 -1 11 2 17 5 13 3 -3 4 -12
1 -19z m-76 -21 c-8 -8 -11 -7 -11 4 0 20 13 34 18 19 3 -7 -1 -17 -7 -23z
m-11 -351 c0 -3 -4 -8 -10 -11 -5 -3 -10 -1 -10 4 0 6 5 11 10 11 6 0 10 -2
10 -4z m14 -584 c3 -5 -1 -9 -9 -9 -8 0 -12 4 -9 9 3 4 7 8 9 8 2 0 6 -4 9 -8z
m2260 -128 c3 -8 2 -12 -4 -9 -6 3 -10 10 -10 16 0 14 7 11 14 -7z m11 -54 c3
-6 -1 -7 -9 -4 -18 7 -21 14 -7 14 6 0 13 -4 16 -10z m-305 -136 c0 -8 -19
-13 -24 -6 -3 5 1 9 9 9 8 0 15 -2 15 -3z m320 -724 c-6 -11 -13 -20 -16 -20
-2 0 0 9 6 20 6 11 13 20 16 20 2 0 0 -9 -6 -20z m0 -45 c0 -8 -4 -15 -10 -15
-5 0 -10 7 -10 15 0 8 5 15 10 15 6 0 10 -7 10 -15z m-295 -145 c3 -6 -1 -7
-9 -4 -18 7 -21 14 -7 14 6 0 13 -4 16 -10z m-120 -100 c3 -6 -1 -7 -9 -4 -18
7 -21 14 -7 14 6 0 13 -4 16 -10z"/>
<path d="M1186 2568 c3 -5 10 -6 15 -3 13 9 11 12 -6 12 -8 0 -12 -4 -9 -9z"/>
<path d="M2040 2561 c0 -6 5 -13 10 -16 6 -3 10 1 10 9 0 9 -4 16 -10 16 -5 0
-10 -4 -10 -9z"/>
<path d="M2359 223 c-13 -17 -13 -17 6 -3 11 8 22 16 24 17 2 2 0 3 -6 3 -6 0
-17 -8 -24 -17z"/>
<path d="M2397 217 c-10 -26 8 -29 29 -4 14 15 14 18 2 9 -13 -10 -17 -10 -20
0 -3 8 -6 6 -11 -5z"/>
<path d="M1986 48 c3 -5 10 -6 15 -3 13 9 11 12 -6 12 -8 0 -12 -4 -9 -9z"/>
</g>
</svg>
