<?xml version="1.0" standalone="no"?>
<!DOCTYPE svg PUBLIC "-//W3C//DTD SVG 20010904//EN"
 "http://www.w3.org/TR/2001/REC-SVG-20010904/DTD/svg10.dtd">
<svg version="1.0" xmlns="http://www.w3.org/2000/svg"
 width="260.000000pt" height="260.000000pt" viewBox="0 0 260.000000 260.000000"
 preserveAspectRatio="xMidYMid meet">
<metadata>
Created by potrace 1.14, written by Peter Selinger 2001-2017
</metadata>
<g transform="translate(0.000000,260.000000) scale(0.100000,-0.100000)"
fill="#000000" stroke="none">
<path d="M685 2098 c-8 -5 -12 -14 -9 -20 4 -6 3 -8 -3 -5 -5 3 -16 -2 -25
-11 -22 -25 -57 -52 -66 -52 -4 0 -13 -5 -19 -11 -9 -9 -8 -15 3 -26 8 -8 14
-19 14 -26 0 -6 -6 -3 -13 7 -11 15 -13 13 -14 -21 0 -21 4 -44 11 -52 8 -11
8 -13 0 -8 -7 4 -11 -2 -11 -18 0 -16 4 -22 11 -18 7 4 7 2 -1 -8 -14 -17 -20
-79 -10 -96 4 -6 4 -14 -1 -17 -5 -3 -7 -22 -4 -43 2 -21 4 -66 5 -100 1 -35
5 -63 9 -63 5 0 8 -5 8 -11 0 -5 -4 -7 -10 -4 -5 3 -10 -1 -10 -10 0 -10 5
-13 12 -9 7 5 8 3 3 -6 -5 -8 -10 -36 -11 -63 -2 -39 0 -47 12 -43 11 4 12 2
5 -12 -6 -11 -6 -24 -1 -32 5 -8 6 -18 3 -24 -4 -5 -5 -30 -4 -55 2 -25 4 -61
5 -78 1 -18 -3 -33 -8 -33 -6 0 -5 -5 2 -12 16 -16 15 -31 0 -22 -10 6 -10 4
0 -8 10 -12 10 -18 1 -23 -8 -6 -7 -10 2 -16 9 -6 10 -12 4 -16 -5 -5 -10 -15
-10 -23 0 -8 5 -18 10 -22 6 -5 6 -8 -2 -8 -8 0 -10 -29 -7 -102 9 -244 10
-308 4 -308 -3 0 -6 -9 -6 -20 0 -11 3 -20 7 -20 3 0 4 -12 2 -28 -4 -21 -2
-24 6 -12 7 9 11 10 11 3 0 -7 9 -10 22 -8 12 3 26 1 32 -4 6 -5 29 -9 51 -9
22 0 57 -1 78 -3 25 -1 42 3 48 12 6 10 9 11 9 1 0 -8 17 -13 53 -13 28 0 84
0 122 -1 113 0 239 5 250 11 14 8 45 9 45 1 0 -3 14 -6 30 -5 17 0 30 4 30 10
0 5 5 3 10 -5 5 -8 10 -10 10 -5 0 6 11 10 25 10 14 0 25 -4 25 -9 0 -5 6 -3
14 3 9 8 16 8 20 2 6 -9 43 -7 74 4 6 2 12 1 12 -4 0 -9 31 -8 48 3 7 4 12 2
12 -6 0 -9 3 -9 10 2 5 8 10 10 10 5 0 -6 15 -10 33 -9 48 3 49 3 41 15 -4 7
1 7 16 -1 15 -8 20 -8 16 -1 -4 6 -3 11 3 11 5 0 13 -5 16 -10 4 -6 12 -4 21
5 13 13 18 13 38 0 18 -12 26 -12 39 -2 13 9 14 16 6 27 -9 12 -10 11 -4 -5 4
-14 3 -17 -5 -9 -6 6 -7 19 -3 31 9 24 112 105 125 97 4 -3 8 1 8 8 0 8 3 9 8
3 15 -21 41 -16 48 9 3 14 3 30 -1 35 -3 6 0 11 7 11 8 0 9 3 3 8 -16 10 -20
66 -13 142 2 19 0 41 -5 48 -6 7 -6 12 0 12 5 0 8 30 6 68 -3 82 -5 92 -12 92
-6 0 -5 83 2 140 1 14 -2 31 -8 39 -8 11 -7 13 4 7 10 -7 12 -3 6 14 -4 13 -9
50 -11 83 -2 35 -9 64 -16 69 -10 6 -8 8 5 8 9 0 17 5 17 11 0 5 -6 7 -12 3
-9 -5 -9 -2 1 9 7 9 10 17 5 17 -5 0 -8 53 -8 117 1 65 -1 123 -4 128 -4 6 -7
62 -8 125 0 63 -4 126 -9 139 -4 13 -3 21 1 18 7 -4 9 30 5 87 -1 4 -13 1 -27
-9 -15 -9 -23 -12 -20 -6 4 6 2 11 -3 11 -6 0 -11 -4 -11 -10 0 -5 -5 -10 -11
-10 -5 0 -7 4 -4 10 4 7 -3 7 -20 0 -14 -5 -24 -6 -21 -1 3 5 -10 8 -29 6 -19
-2 -37 1 -41 6 -3 6 -12 5 -22 -3 -12 -10 -14 -10 -8 0 4 6 3 12 -1 12 -5 0
-15 -6 -22 -12 -11 -10 -13 -10 -7 0 4 6 3 12 -3 12 -5 0 -11 -5 -13 -12 -3
-7 -9 -8 -18 -3 -20 12 -99 14 -107 2 -3 -5 -9 -3 -14 4 -7 11 -9 11 -9 -1 0
-13 -1 -13 -10 0 -8 13 -13 13 -31 2 -11 -8 -18 -9 -14 -3 9 15 -38 14 -54 -1
-11 -10 -13 -10 -7 0 10 16 -75 17 -92 0 -9 -9 -15 -9 -24 0 -16 16 -48 15
-48 0 0 -10 -2 -10 -9 0 -12 19 -15 19 -36 2 -11 -9 -16 -10 -11 -2 4 7 2 12
-6 12 -8 0 -20 -6 -27 -12 -10 -11 -11 -9 -5 7 8 19 7 19 -18 3 -19 -12 -29
-14 -34 -7 -4 8 -9 7 -15 -2 -6 -10 -9 -10 -9 -2 0 15 -70 13 -70 -2 0 -6 -3
-6 -8 1 -13 20 -40 23 -47 6 -6 -15 -8 -15 -18 -2 -15 18 -65 19 -76 1 -6 -8
-11 -9 -15 -3 -3 6 0 13 6 15 7 3 3 6 -10 6 -16 1 -21 -3 -16 -11 6 -10 5 -10
-8 -1 -8 7 -18 10 -21 6 -10 -9 -88 -7 -95 3 -9 12 -47 13 -67 2z m55 -12 c0
-2 -7 -6 -15 -10 -8 -3 -15 -1 -15 4 0 6 7 10 15 10 8 0 15 -2 15 -4z m1190
-75 c0 -5 -16 -21 -35 -35 -19 -15 -35 -23 -35 -18 0 5 11 15 25 22 13 7 24
16 23 19 -1 14 3 21 12 21 6 0 10 -4 10 -9z"/>
<path d="M1959 593 c-13 -16 -12 -17 4 -4 16 13 21 21 13 21 -2 0 -10 -8 -17
-17z"/>
<path d="M1991 591 c-8 -5 -9 -11 -3 -15 5 -3 12 1 16 9 6 17 6 18 -13 6z"/>
</g>
</svg>
